<?xml version="1.0" encoding="utf-8"?>
<!-- Generator: Adobe Illustrator 16.0.0, SVG Export Plug-In . SVG Version: 6.00 Build 0)  -->
<!DOCTYPE svg PUBLIC "-//W3C//DTD SVG 1.1//EN" "http://www.w3.org/Graphics/SVG/1.1/DTD/svg11.dtd">
<svg version="1.1" id="Layer_2" xmlns="http://www.w3.org/2000/svg" xmlns:xlink="http://www.w3.org/1999/xlink" x="0px" y="0px"
	 width="600px" height="600px" viewBox="0 0 600 600" enable-background="new 0 0 600 600" xml:space="preserve">
<g>
	<g>
		<path d="M251.88,145.321c-4.09-5.281-13.014-5.128-18.973-5.055c-9.285,0.114-18.621,1.654-27.705,3.474
			c-24.437,4.896-48.409,14.952-69.927,27.423c-42.232,24.475-70.78,70.286-77.067,118.486c-1.841,14.121-1.948,28.436,0.041,42.55
			c1.801,12.779,5.494,25.105,8.943,37.511c6.325,22.748,13.438,45.869,26.461,65.795c13.459,20.594,34.119,33.271,57.351,40.317
			c12.496,3.79,25.464,5.845,38.381,7.567c13.631,1.818,27.349,3.456,41.058,4.547c30.427,2.422,61.008,1.804,91.5,1.793
			c18.943-0.007,38.921-5.402,56.197-12.866c8.453-3.651,16.756-8.065,23.418-14.524c7.345-7.12,9.719-17.223,10.852-27.038
			c0.687-5.954,0.753-11.975,0.972-17.958c0.228-6.193,0.918-12.313,0.549-18.519c-0.758-12.75-6.094-24.491-10.703-36.203
			c-1.167-2.964-6.004-1.674-4.822,1.33c4.9,12.448,10.216,24.557,10.678,38.133c0.205,6.036-0.596,12.141-0.805,18.178
			c-0.235,6.791-0.464,13.584-1.626,20.294c-1.992,11.493-7.985,19.089-17.638,25.165c-9.357,5.889-19.983,9.728-30.538,12.838
			c-10.012,2.95-20.369,5.101-30.781,5.938c-13.809,1.111-27.986,0.319-41.833,0.28c-30.257-0.085-60.094-1.975-90.125-5.586
			c-26.81-3.224-54.458-8.119-76.885-24.154c-20.151-14.408-31.009-37.71-38.876-60.481c-3.883-11.239-7.027-22.723-10.174-34.184
			c-3.729-13.582-6.943-26.901-7.795-41.025c-1.755-29.087,5.612-57.297,18.722-83.103c7.932-15.613,18.333-29.78,31.147-41.73
			c14.255-13.295,31.136-22.375,48.707-30.475c16.073-7.41,32.67-13.055,50.075-16.27c7.343-1.356,14.779-2.31,22.249-2.501
			c4.621-0.119,12.248-0.528,15.438,3.59C250.317,151.403,253.829,147.836,251.88,145.321L251.88,145.321z"/>
	</g>
</g>
<g>
	<g>
		<path d="M240.613,146.744c4.802-5.153,14.018-4.081,20.338-3.523c7.508,0.662,14.849,2.416,22.3,3.462
			c11.706,1.644,23.332,3.389,34.917,5.769c10.39,2.133,21.077,4.109,30.656,8.829c31.77,15.655,48.954,55.234,47.38,89.33
			c-0.149,3.225,4.852,3.21,5,0c1.691-36.63-17.189-77.55-51.017-94.218c-9.563-4.712-20.342-6.593-30.69-8.762
			c-12.388-2.596-24.876-4.125-37.353-6.138c-8.302-1.339-16.515-3.052-24.932-3.547c-6.787-0.399-15.173-0.062-20.135,5.264
			C234.883,145.564,238.411,149.107,240.613,146.744L240.613,146.744z"/>
	</g>
</g>
<g>
	<g>
		<path d="M356.451,258.744c17.536-1.931,34.915-4.755,52.601-5.018c16.533-0.246,39.187,0.901,49.459,16.122
			c16.487,24.43-43.56,23.257-54.584,23.226c-11.548-0.033-23.089-0.58-34.616-1.245c-3.845-0.222-7.688-0.47-11.534-0.655
			c-8.214-0.394-16.448,0.702-24.604-0.722c-0.222,1.637-0.443,3.274-0.665,4.911c29.037,1.685,58.304,0.712,87.12,5.244
			c11.068,1.741,21.742,4.639,32.186,8.652c8.614,3.31,17.632,7.31,24.367,13.776c8.208,7.881,4.227,17.074-4.02,23.148
			c-8.832,6.506-20.587,8.408-31.159,10.063c-15.354,2.404-30.955,5.345-46.535,5.352c-4.595,0.002-18.563,0.156-17.294-7.507
			c0.521-3.153-4.296-4.505-4.822-1.33c-2.499,15.092,19.744,14.145,29.155,13.634c15.72-0.854,31.778-3.595,47.249-6.408
			c14.278-2.596,43.565-12.52,36.279-32.677c-2.728-7.543-10.476-12.524-17.146-16.213c-7.412-4.099-15.459-7.033-23.432-9.829
			c-16.954-5.944-35.702-7.519-53.508-8.639c-19.46-1.225-38.977-1.136-58.441-2.266c-2.794-0.162-3.451,4.424-0.665,4.911
			c8.906,1.555,17.858,0.497,26.826,0.944c5.286,0.264,10.567,0.617,15.853,0.903c15.19,0.824,30.427,1.318,45.633,0.642
			c12.563-0.559,26.856-1.341,38.139-7.496c9.837-5.366,9.81-15.128,4.015-23.714c-10.241-15.175-31.803-17.485-48.483-17.817
			c-19.283-0.384-38.278,2.907-57.372,5.009C353.282,254.092,353.248,259.096,356.451,258.744L356.451,258.744z"/>
	</g>
</g>
<g>
	<g>
		<path d="M366.975,254.538c-19.557-4.835-44.39-1.003-57.236,15.862c-5.23,6.867-4.104,15.82,1.299,22.092
			c6.073,7.05,16.728,8.207,24.952,4.895c2.382-0.959,2.375-5.248-0.665-4.911c-8.116,0.9-14.727,6.951-20.128,12.625
			c-5.917,6.216-12.107,14.04-12.976,22.859c-1.737,17.642,10.713,32.895,25.989,40.005c18.705,8.705,63.237,17.714,62.431-15.243
			c-0.079-3.219-5.079-3.227-5,0c0.663,27.086-36.992,18.2-52.283,12.065c-13.076-5.246-24.478-15.94-26.238-30.614
			c-1.076-8.966,3.509-15.944,8.94-22.521c4.614-5.586,11.587-13.324,19.265-14.176c-0.222-1.637-0.443-3.274-0.665-4.911
			c-7.066,2.846-14.624,1.954-20.087-3.609c-6.791-6.917-1.823-15.56,4.123-20.846c12.141-10.795,31.79-12.5,46.949-8.752
			C368.775,260.133,370.104,255.311,366.975,254.538L366.975,254.538z"/>
	</g>
</g>
<g>
	<g>
		<path d="M280.692,226.706c-1.802-8.428,11.883-11.186,11.868-2.633c-0.009,4.955-12.669,5.343-10.815-2.096
			c1.77-7.101,15.297-10.417,20.631-6.234c5.528,4.335-6.831,8.073-9.26,4.028c-1.658-2.76-5.982-0.248-4.317,2.523
			c5.362,8.927,25.924,1.821,18.838-8.227c-7.539-10.69-33.202-3.386-31.018,10.647c1.819,11.681,22.318,9.691,20.849-2.099
			c-1.85-14.855-24.694-9.062-21.598,5.419C276.545,231.188,281.365,229.851,280.692,226.706L280.692,226.706z"/>
	</g>
</g>
<g>
	<g>
		<path d="M366.163,218.874c-6.056-2.984-12.794-5.517-17.804-10.172c-0.367,1.393-0.735,2.786-1.103,4.178
			c8.003-2.992,18.399-3,26.631-1.147c4.562,1.027,10.695,4.487,6.256,9.753c-2.432,2.885-7.36,4.364-10.875,2.846
			c-4.673-2.018,0.028-6.906,2.636-7.931c-0.812-1.393-1.622-2.786-2.433-4.178c-0.95,0.704-1.99,1.193-3.123,1.47
			c-3.066,0.958-1.757,5.785,1.33,4.821c2.247-0.702,3.659-0.981,5.328-2.756c1.581-1.68,0.039-5.149-2.433-4.178
			c-7.204,2.832-11.938,12.037-3.829,17.069c7.633,4.737,20.521-2.525,19.954-11.483c-0.491-7.768-9.883-10.337-16.142-11.064
			c-7.853-0.913-17.112-0.853-24.631,1.958c-1.664,0.622-2.588,2.799-1.103,4.178c5.371,4.992,12.323,7.755,18.815,10.955
			C366.521,224.611,369.056,220.299,366.163,218.874L366.163,218.874z"/>
	</g>
</g>
<g>
	<g>
		<path d="M274.056,136.913c0.7-0.082,1.561,0.172,2.278,0.198c0.877,0.032,1.718-0.501,2.159-1.238
			c2.554-4.275-1.484-11.333-3.83-15.056c-3.397-5.394-8.446-9.583-13.682-13.098c-11.146-7.481-24.223-11.113-37.171-13.944
			c-7.584-1.658-22.558-6.265-26.093,4.249c-4.237,12.604,8.504,26.684,16.121,35.339c1.178-1.178,2.357-2.357,3.535-3.535
			c-8.513-8.854-33.483-20.027-42.543-6.693c-5.663,8.334,0.489,19.835,6.092,26.24c8.239,9.418,20.18,15.693,31.31,20.999
			c2.895,1.38,5.433-2.93,2.523-4.317c-9.037-4.308-17.929-9.166-25.603-15.655c-6.315-5.341-14.522-15.182-10.366-24.106
			c2.87-6.162,12.637-3.9,17.583-2.495c6.195,1.759,12.943,4.857,17.469,9.563c2.253,2.344,5.647-1.135,3.535-3.535
			c-6.277-7.133-17.514-19.181-15.135-29.581c1.857-8.119,19.126-1.907,24.195-0.843c10.054,2.112,19.904,5.59,28.844,10.671
			c4.745,2.696,9.044,6.049,12.685,10.117c1.641,1.833,2.939,3.921,4.084,6.087c0.623,1.177,2.904,5.772,2.129,7.07
			c0.72-0.413,1.439-0.826,2.159-1.238c-0.871-0.032-1.328-0.31-2.278-0.198C270.894,132.284,270.857,137.289,274.056,136.913
			L274.056,136.913z"/>
	</g>
</g>
</svg>
