<?xml version="1.0" encoding="utf-8"?>
<!-- Generator: Adobe Illustrator 16.0.0, SVG Export Plug-In . SVG Version: 6.00 Build 0)  -->
<!DOCTYPE svg PUBLIC "-//W3C//DTD SVG 1.1//EN" "http://www.w3.org/Graphics/SVG/1.1/DTD/svg11.dtd">
<svg version="1.1" id="Layer_2" xmlns="http://www.w3.org/2000/svg" xmlns:xlink="http://www.w3.org/1999/xlink" x="0px" y="0px"
	 width="600px" height="600px" viewBox="0 0 600 600" enable-background="new 0 0 600 600" xml:space="preserve">
<g>
	<g>
		<path d="M146.738,299.156c-7.068,3.177-10.271,10.889-12.242,17.899c-2.561,9.107-3.144,18.807-3.668,28.206
			c-0.594,10.629-1.991,21.094-2.864,31.698c-1.237,15.028,0.58,29.594,1.157,44.566c0.609,15.819-3.239,31.436-6.771,46.729
			c-1.986,8.601-3.655,18.381-0.723,26.949c2.913,8.511,11.073,12.636,19.31,14.562c13.589,3.178,27.875,2.193,41.681,1.556
			c32.15-1.485,64.362,0.889,96.512,1.392c32.958,0.516,65.921-0.163,98.879-0.386c29.896-0.202,60.463,2.519,90.085-2.462
			c13.354-2.244,26.136-6.897,38.14-13.105c8.583-4.438,16.41-10.458,21.24-18.965c5.752-10.132,4.896-22.316,4.576-33.524
			c-0.366-12.88-2.567-25.333-8.374-36.927c-9.793-19.55-27.215-35.801-47.533-43.774c-22.926-8.996-46.648-4.895-69.956-0.072
			c-7.593,1.571-15.207,2.886-22.962,3.265c-8.646,0.422-16.787-1.365-25.087-3.544c-14.588-3.829-28.931-8.264-43.94-10.178
			c-7.097-0.905-31.05,3.479-28.223-8.983c1.173-5.172,3.865-9.847,4.974-15.076c1.506-7.102,2.497-14.312,3.218-21.531
			c1.242-12.438,2.148-26.019-1.186-38.206c-2.783-10.172-8.986-19.344-16.682-26.439c-7.763-7.157-17.788-11.989-28.411-12.303
			c-10.827-0.32-20.771,5.369-29.042,11.773c-9.1,7.047-16.874,16.021-23.86,25.112c-7.683,9.998-14.776,20.648-19.115,32.56
			c-1.106,3.037,3.727,4.334,4.821,1.329c4.817-13.226,13.364-25.047,22.215-35.854c8.206-10.018,17.648-19.785,29.191-25.897
			c26.058-13.8,52.796,11.523,57.302,36.523c1.273,7.063,0.729,14.73,0.437,21.86c-0.357,8.721-1.424,17.398-2.974,25.984
			c-1.121,6.213-3.356,11.672-5.355,17.606c-1.476,4.38-1.237,8.587,1.897,12.096c2.988,3.346,8.395,3.68,12.531,4.011
			c6.073,0.486,12.184-0.023,18.26,0.437c15.68,1.188,31.161,7.066,46.298,10.957c14.665,3.77,28.631,2.887,43.38,0.053
			c13.623-2.617,26.956-5.957,40.911-6.025c22.936-0.112,43.93,9.154,59.596,25.806c9.081,9.653,16.478,21.342,19.977,34.172
			c1.745,6.398,2.327,13.049,2.632,19.65c0.326,7.044,0.724,14.451-0.222,21.454c-3.345,24.778-33.841,35.269-54.722,39.911
			c-29.849,6.636-61.727,3.127-92.055,3.297c-32.961,0.186-65.919,0.852-98.88,0.427c-32.225-0.416-64.52-2.917-96.745-1.5
			c-14.508,0.639-29.23,1.713-43.504-1.625c-10.5-2.455-15.792-9.37-15.764-19.977c0.019-7.556,2.084-15.038,3.749-22.347
			c2.095-9.202,3.897-18.453,4.832-27.852c1.002-10.079-0.193-19.896-0.886-29.938c-0.672-9.751-0.489-19.521,0.312-29.257
			c0.602-7.315,1.895-14.542,2.305-21.871c0.345-6.147,0.597-12.295,1.152-18.429c0.897-9.916,2.131-26.724,12.7-31.475
			C152.198,302.153,149.654,297.845,146.738,299.156L146.738,299.156z"/>
	</g>
</g>
<g>
	<g>
		<path d="M172.261,480.188c-0.047,7.061-0.587,14.109,0.793,21.088c0.625,3.161,5.444,1.819,4.821-1.33
			c-1.287-6.502-0.659-13.178-0.615-19.758C177.282,476.962,172.282,476.965,172.261,480.188L172.261,480.188z"/>
	</g>
</g>
<g>
	<g>
		<path d="M221.193,481.449c2.984,5.694,2.58,12.148,6.729,17.407c1.996,2.53,5.509-1.033,3.535-3.535
			c-3.665-4.646-3.243-11.236-5.947-16.396C224.014,476.069,219.699,478.597,221.193,481.449L221.193,481.449z"/>
	</g>
</g>
<g>
	<g>
		<path d="M281.842,488.937c9.273,2.315,15.897,10.138,25.352,11.972c3.15,0.61,4.493-4.208,1.33-4.822
			c-9.358-1.814-16.069-9.653-25.353-11.972C280.042,483.333,278.715,488.155,281.842,488.937L281.842,488.937z"/>
	</g>
</g>
<g>
	<g>
		<path d="M358.603,502.317c8.458,2.223,16.416,5.443,25.313,5.018c3.21-0.153,3.225-5.154,0-5
			c-8.437,0.403-15.973-2.733-23.983-4.84C356.811,496.675,355.487,501.498,358.603,502.317L358.603,502.317z"/>
	</g>
</g>
<g>
	<g>
		<path d="M124.721,472.035c31.726-7.072,64.805-5.77,97.102-5.39c32.996,0.388,65.98,1.438,98.979,1.625
			c32.907,0.186,65.677-1.03,98.466-3.851c32.624-2.806,65.126-7.451,97.781-9.796c18.766-1.348,37.65-0.536,56.264-3.716
			c3.173-0.543,1.823-5.36-1.33-4.822c-15.156,2.591-30.601,2.467-45.921,3.062c-15.93,0.619-31.796,2.677-47.64,4.361
			c-32.809,3.487-65.631,6.972-98.591,8.681c-65.691,3.405-131.544-1.201-197.273-0.65c-19.872,0.166-39.723,1.34-59.167,5.674
			C120.245,467.915,121.58,472.735,124.721,472.035L124.721,472.035z"/>
	</g>
</g>
</svg>
