<?xml version="1.0" encoding="utf-8"?>
<!-- Generator: Adobe Illustrator 16.0.0, SVG Export Plug-In . SVG Version: 6.00 Build 0)  -->
<!DOCTYPE svg PUBLIC "-//W3C//DTD SVG 1.1//EN" "http://www.w3.org/Graphics/SVG/1.1/DTD/svg11.dtd">
<svg version="1.1" id="Layer_2" xmlns="http://www.w3.org/2000/svg" xmlns:xlink="http://www.w3.org/1999/xlink" x="0px" y="0px"
	 width="600px" height="600px" viewBox="0 0 600 600" enable-background="new 0 0 600 600" xml:space="preserve">
<g>
	<g>
		<path d="M225.504,170.734c-45.17,10.935-86.353,37.7-113.742,75.355c-25.419,34.948-38.128,83.688-24.613,125.808
			c5.498,17.135,17.322,30.691,33.694,38.184c22.595,10.34,50.233,10.275,74.259,6.245c27.364-4.591,55.302-15.304,78.434-30.627
			c22.873-15.151,43.67-35.107,61.679-55.73c21.781-24.943,32.098-58.294,41.956-89.257c-1.607,0-3.215,0-4.822,0
			c3.785,21.362,26.377,37.872,46.684,41.818c8.51,1.654,17.089,0.141,23.701-5.625c6.613-5.768,9.078-15.046,10.145-23.388
			c6.505-50.885-37.816-88.461-77.666-110.366c-18.979-10.433-39.413-18.182-60.557-22.864c-18.041-3.995-38.763-7.399-56.975-2.721
			c-15.149,3.892-28.39,16.849-34.262,31.18c-2.761,6.737-3.033,15.856,1.716,21.839c0.793,0.999,2.073,1.584,3.045,2.377
			c1.89,1.541-4.291,3.218-4.814,3.355c-2.999,0.788-4.813,2.492-5.946,5.318c-1.201,2.995,3.637,4.283,4.821,1.329
			c1.368-3.412,7.742-1.961,9.607-5.741c1.575-3.192,2.102-6.348-1.161-8.614c-4.826-3.352-4.886-10.796-3.416-15.98
			c1.799-6.345,6.724-12.491,11.026-17.333c17.621-19.83,46.598-15.601,69.937-11.23c28.613,5.358,55.336,17.17,79.967,32.468
			c20.952,13.014,40.122,30.235,51.398,52.476c6.161,12.152,9.038,25.759,8.669,39.349c-0.276,10.16-3.109,21.964-12.498,27.446
			c-10.314,6.022-24.233,0.234-33.516-5.094c-11.698-6.715-22.654-17.617-25.083-31.33c-0.459-2.588-4.128-2.178-4.822,0
			c-8.104,25.455-16.508,51.208-30.938,73.899c-7.393,11.625-17.137,21.308-26.805,31.024
			c-10.287,10.34-21.042,20.261-32.594,29.179c-23.003,17.757-50.075,29.241-78.25,35.981c-25.573,6.118-55.847,7.034-80.395-3.702
			c-40.839-17.861-41.18-72.452-30.888-109.165c12.99-46.34,49.168-83.425,91.21-105.1c13.669-7.047,28.206-12.327,43.144-15.943
			C229.966,174.797,228.637,169.976,225.504,170.734L225.504,170.734z"/>
	</g>
</g>
<g>
	<g>
		<path d="M316.655,131.941c-19.247,15.092,38.978,36.912,47.621,41.598c12.109,6.566,23.877,13.68,36.615,19.016
			c6.814,2.854,24.209,8.468,21.502-5.367c-0.051-0.208-0.102-0.416-0.151-0.623c-0.765-3.131-5.586-1.803-4.822,1.329
			c0.987,4.042-1.574,3.874-4.966,3.218c-5.678-1.097-11.125-3.664-16.317-6.113c-10.188-4.807-19.82-10.617-29.711-15.98
			c-8.75-4.745-18.145-8.279-26.991-12.862c-4.548-2.357-28.173-13.679-19.244-20.681
			C322.727,133.488,319.161,129.976,316.655,131.941L316.655,131.941z"/>
	</g>
</g>
<g>
	<g>
		<path d="M93.814,402.424c-16.891,2.631-38.379,11.564-40.899,30.88c-1.202,9.207,1.494,18.755,8.788,24.788
			c6.669,5.518,15.758,7.002,24.114,7.739c10.721,0.944,21.673,0.712,32.425,0.917c16.428,0.313,32.86,0.385,49.291,0.364
			c32.889-0.041,65.775-0.532,98.664-0.613c57.647-0.142,115.547-2.833,172.4-13.056c13.128-2.36,34.811-8.237,32.374-25.745
			c-2.554-18.353-26.49-26.953-41.712-31.424c-30.654-9.004-62.872-10.096-94.591-10.148c-35.652-0.061-71.948-1.607-107.052,5.735
			c-3.155,0.66-1.817,5.479,1.329,4.822c31.66-6.623,64.141-5.506,96.295-5.553c15.747-0.022,31.494-0.002,47.22,0.925
			c15.956,0.941,31.199,3.839,46.824,6.901c9.371,1.836,18.614,5.021,27.164,9.252c8.211,4.063,17.717,10.159,19.563,19.826
			c3.383,17.716-28.055,20.68-39.313,22.227c-29.591,4.066-59.053,7.769-88.893,9.51c-32.379,1.891-64.786,1.629-97.203,1.854
			c-32.909,0.229-65.817,0.646-98.727,0.421c-14.201-0.097-28.393-0.514-42.591-0.713c-9.403-0.132-19.02-0.213-27.967-3.455
			c-13.427-4.865-17.218-21.08-10.189-32.799c6.747-11.249,21.849-15.938,34.015-17.833
			C98.322,406.751,96.968,401.934,93.814,402.424L93.814,402.424z"/>
	</g>
</g>
<g>
	<g>
		<path d="M63.64,462.535c-18.715,8.701-25.271,33.31-33.996,50.193c-3.036,5.874-8.755,13.337-2.668,19.219
			c3.385,3.271,8.842,4.692,13.259,5.636c7.221,1.542,14.563,2.531,21.907,3.259c32.181,3.186,64.513,3.435,96.814,2.599
			c32.446-0.841,64.957-2.112,97.335-4.383c32.397-2.272,64.726-5.465,97.174-6.974c32.802-1.525,65.608-0.036,98.422-0.657
			c9.187-0.173,18.462-0.206,27.619-1c7.414-0.643,15.624-1.835,21.461-6.841c6.836-5.862,3.02-15.547,0.247-22.41
			c-2.23-5.521-4.95-10.838-7.581-16.175c-2.738-5.555-5.025-11.304-8.104-16.686c-6.797-11.884-17.076-20.245-29.823-25.046
			c-3.023-1.138-4.317,3.696-1.33,4.822c11.672,4.395,20.463,12.08,26.836,22.747c2.913,4.878,4.954,10.218,7.433,15.318
			c3.074,6.325,6.322,12.567,8.849,19.141c1.506,3.92,3.631,8.955,1.437,12.976c-1.82,3.336-6.373,4.675-9.756,5.585
			c-8.475,2.28-17.593,2.091-26.3,2.266c-30.611,0.614-61.226-0.336-91.83,0.346c-32.484,0.723-64.865,3.731-97.241,6.275
			c-30.456,2.393-60.944,3.743-91.467,4.922c-30.518,1.18-61.08,1.823-91.599,0.313c-14.644-0.725-29.43-1.718-43.892-4.204
			c-5.593-0.962-12.629-1.783-16.914-5.924c-2.575-2.487,1.492-8.064,2.729-10.291c4.945-8.901,8.685-18.412,13.381-27.446
			c4.688-9.019,10.559-18.816,20.12-23.262C69.085,465.495,66.543,461.186,63.64,462.535L63.64,462.535z"/>
	</g>
</g>
<g>
	<g>
		<path d="M127.218,486.871c-9.651,7.688-11.554,24.269-13.319,35.609c-0.491,3.153,4.327,4.508,4.821,1.33
			c1.627-10.459,3.168-26.343,12.033-33.404C133.275,488.397,129.712,484.884,127.218,486.871L127.218,486.871z"/>
	</g>
</g>
<g>
	<g>
		<path d="M196.908,469.624c-0.115,19.473-6.907,48.83,11.098,62.722c2.553,1.971,5.038-2.377,2.523-4.316
			c-8.399-6.48-9.318-18.854-9.588-28.603c-0.275-9.951,0.909-19.86,0.967-29.803C201.927,466.398,196.927,466.4,196.908,469.624
			L196.908,469.624z"/>
	</g>
</g>
<g>
	<g>
		<path d="M301.223,465.359c3.945,17.408,0.103,53.206,25.65,54.652c3.223,0.183,3.205-4.818,0-5
			c-11.222-0.636-14.854-11.999-16.778-21.357c-2.008-9.775-1.846-19.897-4.05-29.625
			C305.332,460.886,300.512,462.219,301.223,465.359L301.223,465.359z"/>
	</g>
</g>
<g>
	<g>
		<path d="M428.946,482.599c7.361-1.003,13.403,2.948,17.599,8.71c1.878,2.578,6.22,0.088,4.318-2.523
			c-5.688-7.81-13.431-12.346-23.247-11.009C424.434,478.21,425.794,483.027,428.946,482.599L428.946,482.599z"/>
	</g>
</g>
</svg>
